# AST/ASF file generated using VICON BodyLanguage
# -----------------------------------------------
:version 1.10
:name VICON
:units
  mass 1.0
  length 0.45
  angle deg
:documentation
   .ast/.asf automatically generated from VICON data using
   VICON BodyBuilder and BodyLanguage model FoxedUp or BRILLIANT.MOD
:root
   order TX TY TZ RX RY RZ
   axis XYZ
   position 0 0 0  
   orientation 0 0 0 
:bonedata
  begin
     id 1 
     name lhipjoint
     direction 0.702568 -0.596508 0.388042 
     length 2.56661 
     axis 0 0 0  XYZ
  end
  begin
     id 2 
     name lfemur
     direction 0.34202 -0.939693 0  
     length 6.58374  
     axis 0 0 20  XYZ
    dof rx ry rz
    limits (-160.0 20.0)
           (-70.0 70.0)
           (-60.0 70.0)
  end
  begin
     id 3 
     name ltibia
     direction 0.34202 -0.939693 0   
     length 6.62538   
     axis 0 0 20   XYZ
    dof rx
    limits (-10.0 170.0)
  end
  begin
     id 4 
     name lfoot
     direction 0.10455 -0.287249 0.952133   
     length 2.26699   
     axis -90 7.62852e-016 20   XYZ
    dof rx rz
    limits (-45.0 90.0)
           (-70.0 20.0)
  end
  begin
     id 5 
     name ltoes
     direction 1.53572e-011 -4.22322e-011 1   
     length 1.12949   
     axis -90 7.62852e-016 20   XYZ
    dof rx
    limits (-90.0 20.0)
  end
  begin
     id 6 
     name rhipjoint
     direction -0.728055 -0.574632 0.373811   
     length 2.66432  
     axis 0 0 0  XYZ 
  end
  begin
     id 7 
     name rfemur
     direction -0.34202 -0.939693 0   
     length 6.66732   
     axis 0 0 -20   XYZ
    dof rx ry rz
    limits (-160.0 20.0)
           (-70.0 70.0)
           (-70.0 60.0)
  end
  begin
     id 8 
     name rtibia
     direction -0.34202 -0.939693 0   
     length 6.59288   
     axis 0 0 -20   XYZ
    dof rx
    limits (-10.0 170.0)
 end
 begin
     id 9 
     name rfoot
     direction -0.119193 -0.327479 0.93731   
     length 2.38061  
     axis -90 -7.62852e-016 -20   XYZ
    dof rx rz
    limits (-45.0 90.0)
           (-20.0 70.0)
  end
  begin
     id 10 
     name rtoes
     direction -1.53547e-011 -4.21827e-011 1   
     length 1.17899   
     axis -90 -7.62852e-016 -20   XYZ
    dof rx
    limits (-90.0 20.0)
  end
  begin
     id 11 
     name lowerback
     direction -0.000416114 0.999912 -0.0132284   
     length 2.12109   
     axis 0 0 0   XYZ
    dof rx ry rz
    limits (-20.0 45.0)
           (-30.0 30.0)
           (-30.0 30.0)
  end
  begin
     id 12 
     name upperback
     direction -0.00136371 0.99809 0.0617608   
     length 2.10067   
     axis 0 0 0   XYZ
    dof rx ry rz
    limits (-20.0 45.0)
           (-30.0 30.0)
           (-30.0 30.0)
  end
  begin
     id 13 
     name thorax
     direction -3.43026e-005 0.997776 0.0666515   
     length 2.10618   
     axis 0 0 0   XYZ
    dof rx ry rz
    limits (-20.0 45.0)
           (-30.0 30.0)
           (-30.0 30.0)
  end
  begin
     id 14 
     name lowerneck
     direction 0.0398646 0.998418 0.0396592   
     length 1.83817   
     axis 0 0 0   XYZ
    dof rx ry rz
    limits (-20.0 45.0)
           (-30.0 30.0)
           (-30.0 30.0)
  end
  begin
     id 15 
     name upperneck
     direction -0.0367268 0.961527 -0.272244   
     length 1.81975   
     axis 0 0 0   XYZ
    dof rx ry rz
    limits (-20.0 45.0)
           (-30.0 30.0)
           (-30.0 30.0)
  end
  begin
     id 16
     name head
     direction -0.0182665 0.99536 -0.0944669  
     length 1.86026  
     axis 0 0 0   XYZ
    dof rx ry rz
    limits (-20.0 45.0)
           (-30.0 30.0)
           (-30.0 30.0)
  end
  begin
     id 17 
     name lclavicle
     direction 0.924239 0.361045 0.124212  
     length 3.26878  
     axis 0 0 0   XYZ
    dof ry rz
    limits (-20.0 10.0)
           (0.0 20.0)
  end
  begin
     id 18 
     name lhumerus
     direction 1 -4.48968e-011 -2.56583e-027   
     length 4.58538   
     axis 180 -30 -90   XYZ
    dof rx ry rz
    limits (-60.0 90.0)
           (-90.0 90.0)
           (-90.0 90.0)
  end
  begin
     id 19
     name lradius
     direction 1 -4.4898e-011 -5.50375e-027   
     length 2.68935   
     axis 180 -30 -90   XYZ
    dof rx
    limits (-10.0 170.0)
  end
  begin
     id 20
     name lwrist
     direction 1 -4.48939e-011 -1.48955e-026   
     length 1.34468   
     axis 9.0955e-015 90 90   XYZ
    dof ry
    limits (-180.0 0.0)
 end
  begin
     id 21 
     name lhand
     direction 1 -4.48936e-011 -2.97907e-026   
     length 0.585058   
     axis 1.90115e-014 90 90   XYZ
    dof rx rz
    limits (-90.0 90.0)
           (-45.0 45.0)
  end
  begin
     id 22 
     name lfingers
     direction 1 -4.49082e-011 -5.96235e-026   
     length 0.471689   
     axis 3.80223e-014 90 90   XYZ
    dof rx
    limits (0.0 90.0)
  end
  begin
     id 23
     name lthumb
     direction 0.707107 -6.3489e-011 0.707107   
     length 0.677253   
     axis -90 45 -3.84942e-014   XYZ
    dof rx rz
    limits (-45.0 45.0)
           (-45.0 45.0)
  end
  begin
     id 24 
     name rclavicle
     direction -0.923098 0.371783 0.0983239   
     length 3.19656  
     axis 0 0 0   XYZ 
    dof ry rz
    limits (-10.0 20.0)
           (-20.0 0.0)
  end
  begin
     id 25 
     name rhumerus
     direction -1 -4.48976e-011 -2.5492e-027  
     length 4.4745   
     axis 180 30 90   XYZ
    dof rx ry rz
    limits (-90.0 60.0)
           (-90.0 90.0)
           (-90.0 90.0)
  end
  begin
     id 26 
     name rradius
     direction -1 -4.48941e-011 -4.36555e-027   
     length 2.93896   
     axis 180 30 90   XYZ
    dof rx
    limits (-10.0 170.0)
  end
  begin
     id 27 
     name rwrist
     direction -1 -4.49044e-011 -1.49032e-026   
     length 1.46948   
     axis 9.0955e-015 -90 -90   XYZ
    dof ry
    limits (-180.0 0.0)
  end
  begin
     id 28
     name rhand
     direction -1 -4.48826e-011 -2.97749e-026   
     length 0.405092   
     axis 1.90115e-014 -90 -90   XYZ
    dof rx rz
    limits (-90.0 90.0)
           (-45.0 45.0)
  end
  begin
     id 29
     name rfingers
     direction -1 -4.49209e-011 -5.96602e-026   
     length 0.326596   
     axis 3.80223e-014 -90 -90   XYZ
    dof rx
    limits (0.0 90.0)
  end
  begin
     id 30
     name rthumb
     direction -0.707107 -6.34776e-011 0.707107   
     length 0.468928   
     axis -90 -45 3.84942e-014   XYZ
    dof rx rz
    limits (-45.0 45.0)
           (-45.0 45.0)
  end
:hierarchy
  begin
    root lhipjoint rhipjoint lowerback
    lhipjoint lfemur
    lfemur ltibia
    ltibia lfoot
    lfoot ltoes
    rhipjoint rfemur
    rfemur rtibia
    rtibia rfoot
    rfoot rtoes
    lowerback upperback
    upperback thorax
    thorax lowerneck lclavicle rclavicle
    lowerneck upperneck
    upperneck head
    lclavicle lhumerus
    lhumerus lradius
    lradius lwrist
    lwrist lhand lthumb
    lhand lfingers
    rclavicle rhumerus
    rhumerus rradius
    rradius rwrist
    rwrist rhand rthumb
    rhand rfingers
  end

#!OML:ASF H:\Punching\Project 1\Capture day 1\Session 1\female.ASF
:FULLY-SPECIFIED
:DEGREES
436
root 2.03622 14.9922 -0.410286 19.7706 -35.9704 -6.74498
lowerback -2.29826 2.63633 4.85931
upperback -5.95901 3.50062 -0.424216
thorax -4.57299 1.50153 -3.20409
lowerneck -4.44909 11.3516 18.0533
upperneck 25.6733 18.9225 -20.0787
head 13.1722 8.49647 -8.1447
rclavicle -8.77137e-015 1.35174e-014
rhumerus -14.5949 26.9475 -82.3426
rradius 129.749
rwrist -12.3689
rhand -26.5307 7.32547
rfingers 7.12502
rthumb 0.0331698 -22.6543
lclavicle -8.77137e-015 1.35174e-014
lhumerus -10.4158 -13.4242 64.4872
lradius 139.177
lwrist 0.435429
lhand -24.6252 6.03438
lfingers 7.12502
lthumb 1.87352 36.0059
rfemur -5.57593 7.2564 8.67254
rtibia 33.3587
rfoot -11.8293 -19.6441
rtoes -16.3965
lfemur -49.6116 14.4655 -18.2139
ltibia 50.533
lfoot -17.2467 22.7206
ltoes 17.4434
437
root 1.99832 14.9881 -0.509908 20.3984 -36.9911 -7.15465
lowerback -2.393 2.66314 4.82042
upperback -6.02909 3.52673 -0.523543
thorax -4.58688 1.51131 -3.28279
lowerneck -4.20093 11.591 18.3319
upperneck 24.9112 19.2516 -20.4792
head 12.9788 8.66493 -8.2573
rclavicle 1.88597e-014 2.14687e-014
rhumerus -14.7129 27.338 -82.7752
rradius 129.675
rwrist -12.1686
rhand -25.852 6.94307
rfingers 7.12502
rthumb 0.688687 -23.0356
lclavicle 1.88597e-014 2.14687e-014
lhumerus -10.9431 -13.1962 64.5045
lradius 139.235
lwrist 0.11383
lhand -24.578 6.04333
lfingers 7.12502
lthumb 1.91911 36.0144
rfemur -5.95389 8.19349 8.86539
rtibia 32.2743
rfoot -11.6542 -20.0685
rtoes -17.7453
lfemur -50.0507 15.0335 -17.5962
ltibia 50.6076
lfoot -17.203 23.1857
ltoes 17.7878
438
root 1.9599 14.9828 -0.613442 21.0126 -37.9764 -7.53851
lowerback -2.48941 2.66878 4.75938
upperback -6.09529 3.5237 -0.636208
thorax -4.59866 1.50728 -3.36268
lowerneck -3.94543 11.8331 18.611
upperneck 24.1327 19.5773 -20.8707
head 12.7813 8.83492 -8.36528
rclavicle -9.59136e-014 -1.11319e-014
rhumerus -14.8079 27.7435 -83.2024
rradius 129.581
rwrist -11.9366
rhand -25.2008 6.66705
rfingers 7.12502
rthumb 1.31763 -23.3086
lclavicle -9.59136e-014 -1.11319e-014
lhumerus -11.4226 -12.916 64.4539
lradius 139.284
lwrist -0.176275
lhand -24.5251 5.97882
lfingers 7.12502
lthumb 1.97022 35.9495
rfemur -6.39419 8.88478 9.05188
rtibia 31.4122
rfoot -11.8083 -20.4479
rtoes -18.9585
lfemur -50.4585 15.5503 -16.9782
ltibia 50.6446
lfoot -17.1491 23.6677
ltoes 18.1751
439
root 1.92106 14.9764 -0.720832 21.5979 -38.922 -7.88125
lowerback -2.58426 2.65259 4.66836
upperback -6.15798 3.49078 -0.764562
thorax -4.61095 1.48931 -3.44209
lowerneck -3.67903 12.0753 18.8899
upperneck 23.3401 19.8974 -21.2544
head 12.5794 9.00554 -8.47003
rclavicle 1.49089e-015 -7.95139e-016
rhumerus -14.8873 28.1668 -83.6185
rradius 129.459
rwrist -11.6373
rhand -24.6239 6.53441
rfingers 7.12502
rthumb 1.87482 -23.4371
lclavicle 1.49089e-015 -7.95139e-016
lhumerus -11.8351 -12.5952 64.3315
lradius 139.323
lwrist -0.435549
lhand -24.4743 5.87078
lfingers 7.12502
lthumb 2.01929 35.841
rfemur -6.86445 9.25787 9.22713
rtibia 30.7533
rfoot -12.3863 -20.7073
rtoes -20.0146
lfemur -50.8293 16.0143 -16.3691
ltibia 50.642
lfoot -17.109 24.149
ltoes 18.6643
440
root 1.88186 14.9691 -0.831893 22.1437 -39.8266 -8.18046
lowerback -2.6713 2.61677 4.55186
upperback -6.21368 3.4312 -0.911348
thorax -4.62301 1.45885 -3.52666
lowerneck -3.4041 12.3149 19.1681
upperneck 22.5317 20.2067 -21.6285
head 12.3711 9.17443 -8.5717
rclavicle -8.12532e-014 -9.54166e-015
rhumerus -14.9471 28.5915 -84.0125
rradius 129.325
rwrist -11.2917
rhand -24.1331 6.53445
rfingers 7.12502
rthumb 2.34882 -23.4324
lclavicle -8.12532e-014 -9.54166e-015
lhumerus -12.1739 -12.2494 64.1369
lradius 139.359
lwrist -0.672447
lhand -24.4375 5.7591
lfingers 7.12502
lthumb 2.05486 35.729
rfemur -7.34449 9.3186 9.40485
rtibia 30.2722
rfoot -13.2738 -20.8082
rtoes -21.0358
lfemur -51.1538 16.4285 -15.7667
ltibia 50.5943
lfoot -17.0618 24.6253
ltoes 19.1903
441
root 1.84216 14.9609 -0.946318 22.6312 -40.6895 -8.42562
lowerback -2.74274 2.56081 4.40337
upperback -6.26181 3.34476 -1.07406
thorax -4.63915 1.41604 -3.61054
lowerneck -3.10861 12.548 19.4395
upperneck 21.7042 20.5028 -21.9975
head 12.1518 9.34054 -8.67249
rclavicle -3.25013e-014 -1.03368e-014
rhumerus -14.9851 29.0143 -84.3746
rradius 129.2
rwrist -10.939
rhand -23.6777 6.55832
rfingers 7.12502
rthumb 2.78867 -23.4032
lclavicle -3.25013e-014 -1.03368e-014
lhumerus -12.4534 -11.8962 63.8831
lradius 139.406
lwrist -0.893565
lhand -24.4213 5.67338
lfingers 7.12502
lthumb 2.07049 35.6431
rfemur -7.8086 9.1736 9.59181
rtibia 29.9339
rfoot -14.3831 -20.7889
rtoes -21.9586
lfemur -51.4183 16.7972 -15.1766
ltibia 50.4985
lfoot -17.0077 25.0844
ltoes 19.7542
442
root 1.80195 14.9522 -1.06473 23.0592 -41.5101 -8.62238
lowerback -2.7866 2.48517 4.2204
upperback -6.30437 3.2328 -1.24656
thorax -4.66859 1.36153 -3.68658
lowerneck -2.79073 12.7728 19.6987
upperneck 20.8604 20.7839 -22.3593
head 11.921 9.50287 -8.77175
rclavicle -7.9812e-014 4.13472e-014
rhumerus -15.009 29.4425 -84.6939
rradius 129.093
rwrist -10.5782
rhand -23.2866 6.58628
rfingers 7.12502
rthumb 3.16637 -23.37
lclavicle -7.9812e-014 4.13472e-014
lhumerus -12.6645 -11.5323 63.5591
lradius 139.46
lwrist -1.08341
lhand -24.4343 5.62845
lfingers 7.12502
lthumb 2.05796 35.5983
rfemur -8.25547 9.01113 9.80069
rtibia 29.6953
rfoot -15.597 -20.7251
rtoes -22.6993
lfemur -51.6241 17.1278 -14.5917
ltibia 50.353
lfoot -16.9294 25.5252
ltoes 20.3166
443
root 1.76102 14.9428 -1.18647 23.4254 -42.2792 -8.78229
lowerback -2.80189 2.38955 4.01608
upperback -6.33565 3.09509 -1.42157
thorax -4.70561 1.29509 -3.75425
lowerneck -2.45851 12.9908 19.9378
upperneck 20.0064 21.0524 -22.7131
head 11.6823 9.66135 -8.86752
rclavicle -7.93648e-014 -1.03368e-014
rhumerus -14.9986 29.8759 -84.9568
rradius 128.996
rwrist -10.2124
rhand -22.9783 6.59113
rfingers 7.12502
rthumb 3.46409 -23.3605
lclavicle -7.93648e-014 -1.03368e-014
lhumerus -12.8205 -11.1567 63.1819
lradius 139.528
lwrist -1.24757
lhand -24.4726 5.61012
lfingers 7.12502
lthumb 2.02094 35.5803
rfemur -8.67607 8.97122 10.0387
rtibia 29.5102
rfoot -16.7833 -20.6979
rtoes -23.2355
lfemur -51.7661 17.4299 -14.0039
ltibia 50.1642
lfoot -16.8132 25.938
ltoes 20.8386
444
root 1.71935 14.9329 -1.31092 23.7167 -42.9967 -8.90256
lowerback -2.78359 2.27427 3.79268
upperback -6.34775 2.93209 -1.59851
thorax -4.74446 1.21725 -3.81399
lowerneck -2.12689 13.2032 20.1521
upperneck 19.1494 21.3092 -23.0553
head 11.4402 9.81504 -8.95713
rclavicle 6.75868e-014 3.97569e-014
rhumerus -14.9368 30.3126 -85.1541
rradius 128.911
rwrist -9.85538
rhand -22.7507 6.54728
rfingers 7.12502
rthumb 3.68382 -23.4006
lclavicle 6.75868e-014 3.97569e-014
lhumerus -12.9159 -10.7723 62.7607
lradius 139.608
lwrist -1.38253
lhand -24.5272 5.63598
lfingers 7.12502
lthumb 1.96819 35.6066
rfemur -9.05758 9.11855 10.2916
rtibia 29.3385
rfoot -17.9918 -20.7807
rtoes -23.702
lfemur -51.8347 17.7022 -13.4136
ltibia 49.9397
lfoot -16.6681 26.323
ltoes 21.3351
445
root 1.67721 14.922 -1.43748 23.9389 -43.6488 -8.99371
lowerback -2.73343 2.14007 3.56584
upperback -6.34063 2.74478 -1.77275
thorax -4.78352 1.12793 -3.86941
lowerneck -1.79986 13.4065 20.3429
upperneck 18.2975 21.5503 -23.3886
head 11.198 9.96166 -9.04334
rclavicle 7.50412e-014 3.73715e-014
rhumerus -14.8227 30.7433 -85.2779
rradius 128.843
rwrist -9.52402
rhand -22.593 6.45092
rfingers 7.12502
rthumb 3.83614 -23.4943
lclavicle 7.50412e-014 3.73715e-014
lhumerus -12.957 -10.3796 62.318
lradius 139.688
lwrist -1.48478
lhand -24.5947 5.64989
lfingers 7.12502
lthumb 1.90303 35.6211
rfemur -9.38558 9.39292 10.5608
rtibia 29.1512
rfoot -19.1904 -20.891
rtoes -23.9451
lfemur -51.8386 17.9375 -12.8098
ltibia 49.6907
lfoot -16.4845 26.6791
ltoes 21.766
446
root 1.63484 14.9099 -1.56502 24.0798 -44.2394 -9.05946
lowerback -2.64023 1.99014 3.34601
upperback -6.30946 2.53776 -1.94504
thorax -4.82316 1.02905 -3.92723
lowerneck -1.48985 13.6026 20.5114
upperneck 17.4645 21.7782 -23.7084
head 10.9629 10.1014 -9.12402
rclavicle 3.48867e-014 1.43125e-014
rhumerus -14.6496 31.1584 -85.3299
rradius 128.793
rwrist -9.23476
rhand -22.4784 6.28826
rfingers 7.12502
rthumb 3.94681 -23.6549
lclavicle 3.48867e-014 1.43125e-014
lhumerus -12.9605 -9.98784 61.8751
lradius 139.775
lwrist -1.55824
lhand -24.6691 5.64461
lfingers 7.12502
lthumb 1.83118 35.6165
rfemur -9.63792 9.7142 10.8422
rtibia 28.9369
rfoot -20.3406 -20.9476
rtoes -23.8287
lfemur -51.7571 18.1188 -12.177
ltibia 49.4227
lfoot -16.2764 27.013
ltoes 22.1473
447
root 1.59249 14.8978 -1.6927 24.1522 -44.7714 -9.11711
lowerback -2.50598 1.83021 3.14506
upperback -6.25709 2.31864 -2.11099
thorax -4.8644 0.923894 -3.98927
lowerneck -1.18918 13.7864 20.6603
upperneck 16.6534 21.9873 -24.0163
head 10.7329 10.2322 -9.20222
rclavicle 1.39149e-014 -2.06736e-014
rhumerus -14.4367 31.5578 -85.3156
rradius 128.765
rwrist -8.98273
rhand -22.4301 6.07416
rfingers 7.12502
rthumb 3.99344 -23.8682
lclavicle 1.39149e-014 -2.06736e-014
lhumerus -12.9314 -9.64001 61.4578
lradius 139.872
lwrist -1.63909
lhand -24.7498 5.73622
lfingers 7.12502
lthumb 1.75323 35.7088
rfemur -9.81502 10.005 11.1464
rtibia 28.6993
rfoot -21.4109 -20.9409
rtoes -23.3842
lfemur -51.5767 18.2129 -11.4747
ltibia 49.136
lfoot -16.0534 27.3353
ltoes 22.5041
